<svg xmlns="http://www.w3.org/2000/svg" viewBox="0 0 500 500" width="500" height="500"><defs><linearGradient id="ap0phfe_pg" x1="0%" y1="0%" x2="100%" y2="100%"><stop offset="0%" stop-color="hsl(0, 65%, 55%)"/><stop offset="100%" stop-color="hsl(35, 55%, 45%)"/></linearGradient><linearGradient id="ap0phfe_ag" x1="0%" y1="100%" x2="100%" y2="0%"><stop offset="0%" stop-color="hsl(180, 75%, 60%)"/><stop offset="100%" stop-color="hsl(180, 85%, 80%)"/></linearGradient></defs><rect width="500" height="500" fill="#0a0a0a"/><rect x="4" y="4" width="492" height="492" rx="2" fill="none" stroke="url(#ap0phfe_pg)" stroke-width="1.5" opacity="0.35"/><circle cx="250" cy="250" r="200" fill="hsl(0, 65%, 55%)" opacity="0.1"/><rect x="0" y="0" width="20" height="20" rx="2" fill="url(#ap0phfe_pg)"/><rect x="20" y="0" width="20" height="20" rx="2" fill="url(#ap0phfe_pg)"/><rect x="40" y="0" width="20" height="20" rx="2" fill="url(#ap0phfe_pg)"/><rect x="60" y="0" width="20" height="20" rx="2" fill="url(#ap0phfe_pg)"/><rect x="80" y="0" width="20" height="20" rx="2" fill="url(#ap0phfe_pg)"/><rect x="100" y="0" width="20" height="20" rx="2" fill="url(#ap0phfe_pg)"/><rect x="120" y="0" width="20" height="20" rx="2" fill="url(#ap0phfe_pg)"/><rect x="360" y="0" width="20" height="20" rx="2" fill="url(#ap0phfe_pg)"/><rect x="380" y="0" width="20" height="20" rx="2" fill="url(#ap0phfe_pg)"/><rect x="400" y="0" width="20" height="20" rx="2" fill="url(#ap0phfe_pg)"/><rect x="420" y="0" width="20" height="20" rx="2" fill="url(#ap0phfe_pg)"/><rect x="440" y="0" width="20" height="20" rx="2" fill="url(#ap0phfe_pg)"/><rect x="460" y="0" width="20" height="20" rx="2" fill="url(#ap0phfe_pg)"/><rect x="480" y="0" width="20" height="20" rx="2" fill="url(#ap0phfe_pg)"/><rect x="0" y="20" width="20" height="20" rx="2" fill="url(#ap0phfe_pg)"/><rect x="40" y="20" width="20" height="20" rx="2" fill="url(#ap0phfe_pg)"/><rect x="120" y="20" width="20" height="20" rx="2" fill="url(#ap0phfe_pg)"/><rect x="340" y="20" width="20" height="20" rx="2" fill="url(#ap0phfe_pg)"/><rect x="360" y="20" width="20" height="20" rx="2" fill="url(#ap0phfe_pg)"/><rect x="380" y="20" width="20" height="20" rx="2" fill="url(#ap0phfe_pg)"/><rect x="480" y="20" width="20" height="20" rx="2" fill="url(#ap0phfe_pg)"/><rect x="0" y="40" width="20" height="20" rx="2" fill="url(#ap0phfe_pg)"/><rect x="40" y="40" width="20" height="20" rx="2" fill="url(#ap0phfe_pg)"/><rect x="60" y="40" width="20" height="20" rx="2" fill="url(#ap0phfe_pg)"/><rect x="80" y="40" width="20" height="20" rx="2" fill="url(#ap0phfe_pg)"/><rect x="120" y="40" width="20" height="20" rx="2" fill="url(#ap0phfe_pg)"/><rect x="200" y="40" width="20" height="20" rx="2" fill="url(#ap0phfe_pg)"/><rect x="220" y="40" width="20" height="20" rx="2" fill="url(#ap0phfe_pg)"/><rect x="240" y="40" width="20" height="20" rx="2" fill="url(#ap0phfe_pg)"/><rect x="260" y="40" width="20" height="20" rx="2" fill="url(#ap0phfe_pg)"/><rect x="280" y="40" width="20" height="20" rx="2" fill="url(#ap0phfe_pg)"/><rect x="300" y="40" width="20" height="20" rx="2" fill="url(#ap0phfe_pg)"/><rect x="360" y="40" width="20" height="20" rx="2" fill="url(#ap0phfe_pg)"/><rect x="400" y="40" width="20" height="20" rx="2" fill="url(#ap0phfe_pg)"/><rect x="420" y="40" width="20" height="20" rx="2" fill="url(#ap0phfe_pg)"/><rect x="440" y="40" width="20" height="20" rx="2" fill="url(#ap0phfe_pg)"/><rect x="480" y="40" width="20" height="20" rx="2" fill="url(#ap0phfe_pg)"/><rect x="0" y="60" width="20" height="20" rx="2" fill="url(#ap0phfe_pg)"/><rect x="40" y="60" width="20" height="20" rx="2" fill="url(#ap0phfe_pg)"/><rect x="60" y="60" width="20" height="20" rx="2" fill="url(#ap0phfe_pg)"/><rect x="80" y="60" width="20" height="20" rx="2" fill="url(#ap0phfe_pg)"/><rect x="100" y="60" width="20" height="20" rx="2" fill="url(#ap0phfe_pg)"/><rect x="120" y="60" width="20" height="20" rx="2" fill="url(#ap0phfe_pg)"/><rect x="160" y="60" width="20" height="20" rx="2" fill="url(#ap0phfe_pg)"/><rect x="180" y="60" width="20" height="20" rx="2" fill="url(#ap0phfe_pg)"/><rect x="200" y="60" width="20" height="20" rx="2" fill="url(#ap0phfe_pg)"/><rect x="220" y="60" width="20" height="20" rx="2" fill="url(#ap0phfe_pg)"/><rect x="280" y="60" width="20" height="20" rx="2" fill="url(#ap0phfe_pg)"/><rect x="300" y="60" width="20" height="20" rx="2" fill="url(#ap0phfe_pg)"/><rect x="320" y="60" width="20" height="20" rx="2" fill="url(#ap0phfe_pg)"/><rect x="340" y="60" width="20" height="20" rx="2" fill="url(#ap0phfe_pg)"/><rect x="360" y="60" width="20" height="20" rx="2" fill="url(#ap0phfe_pg)"/><rect x="400" y="60" width="20" height="20" rx="2" fill="url(#ap0phfe_pg)"/><rect x="420" y="60" width="20" height="20" rx="2" fill="url(#ap0phfe_pg)"/><rect x="440" y="60" width="20" height="20" rx="2" fill="url(#ap0phfe_pg)"/><rect x="480" y="60" width="20" height="20" rx="2" fill="url(#ap0phfe_pg)"/><rect x="0" y="80" width="20" height="20" rx="2" fill="url(#ap0phfe_pg)"/><rect x="40" y="80" width="20" height="20" rx="2" fill="url(#ap0phfe_pg)"/><rect x="60" y="80" width="20" height="20" rx="2" fill="url(#ap0phfe_pg)"/><rect x="80" y="80" width="20" height="20" rx="2" fill="url(#ap0phfe_pg)"/><rect x="100" y="80" width="20" height="20" rx="2" fill="url(#ap0phfe_pg)"/><rect x="120" y="80" width="20" height="20" rx="2" fill="url(#ap0phfe_pg)"/><rect x="140" y="80" width="20" height="20" rx="2" fill="url(#ap0phfe_pg)"/><rect x="160" y="80" width="20" height="20" rx="2" fill="url(#ap0phfe_pg)"/><rect x="180" y="80" width="20" height="20" rx="2" fill="url(#ap0phfe_pg)"/><rect x="320" y="80" width="20" height="20" rx="2" fill="url(#ap0phfe_pg)"/><rect x="340" y="80" width="20" height="20" rx="2" fill="url(#ap0phfe_pg)"/><rect x="360" y="80" width="20" height="20" rx="2" fill="url(#ap0phfe_pg)"/><rect x="400" y="80" width="20" height="20" rx="2" fill="url(#ap0phfe_pg)"/><rect x="420" y="80" width="20" height="20" rx="2" fill="url(#ap0phfe_pg)"/><rect x="440" y="80" width="20" height="20" rx="2" fill="url(#ap0phfe_pg)"/><rect x="480" y="80" width="20" height="20" rx="2" fill="url(#ap0phfe_pg)"/><rect x="0" y="100" width="20" height="20" rx="2" fill="url(#ap0phfe_pg)"/><rect x="80" y="100" width="20" height="20" rx="2" fill="url(#ap0phfe_pg)"/><rect x="120" y="100" width="20" height="20" rx="2" fill="url(#ap0phfe_pg)"/><rect x="140" y="100" width="20" height="20" rx="2" fill="url(#ap0phfe_pg)"/><rect x="200" y="100" width="20" height="20" rx="2" fill="url(#ap0phfe_pg)"/><rect x="300" y="100" width="20" height="20" rx="2" fill="url(#ap0phfe_pg)"/><rect x="360" y="100" width="20" height="20" rx="2" fill="url(#ap0phfe_pg)"/><rect x="380" y="100" width="20" height="20" rx="2" fill="url(#ap0phfe_pg)"/><rect x="480" y="100" width="20" height="20" rx="2" fill="url(#ap0phfe_pg)"/><rect x="0" y="120" width="20" height="20" rx="2" fill="url(#ap0phfe_pg)"/><rect x="20" y="120" width="20" height="20" rx="2" fill="url(#ap0phfe_pg)"/><rect x="40" y="120" width="20" height="20" rx="2" fill="url(#ap0phfe_pg)"/><rect x="60" y="120" width="20" height="20" rx="2" fill="url(#ap0phfe_pg)"/><rect x="80" y="120" width="20" height="20" rx="2" fill="url(#ap0phfe_pg)"/><rect x="100" y="120" width="20" height="20" rx="2" fill="url(#ap0phfe_pg)"/><rect x="120" y="120" width="20" height="20" rx="2" fill="url(#ap0phfe_pg)"/><rect x="160" y="120" width="20" height="20" rx="2" fill="url(#ap0phfe_pg)"/><rect x="200" y="120" width="20" height="20" rx="2" fill="url(#ap0phfe_pg)"/><rect x="240" y="120" width="20" height="20" rx="2" fill="url(#ap0phfe_pg)"/><rect x="260" y="120" width="20" height="20" rx="2" fill="url(#ap0phfe_pg)"/><rect x="340" y="120" width="20" height="20" rx="2" fill="url(#ap0phfe_pg)"/><rect x="360" y="120" width="20" height="20" rx="2" fill="url(#ap0phfe_pg)"/><rect x="380" y="120" width="20" height="20" rx="2" fill="url(#ap0phfe_pg)"/><rect x="400" y="120" width="20" height="20" rx="2" fill="url(#ap0phfe_pg)"/><rect x="420" y="120" width="20" height="20" rx="2" fill="url(#ap0phfe_pg)"/><rect x="440" y="120" width="20" height="20" rx="2" fill="url(#ap0phfe_pg)"/><rect x="460" y="120" width="20" height="20" rx="2" fill="url(#ap0phfe_pg)"/><rect x="480" y="120" width="20" height="20" rx="2" fill="url(#ap0phfe_pg)"/><rect x="100" y="140" width="20" height="20" rx="2" fill="url(#ap0phfe_pg)"/><rect x="120" y="140" width="20" height="20" rx="2" fill="url(#ap0phfe_pg)"/><rect x="380" y="140" width="20" height="20" rx="2" fill="url(#ap0phfe_pg)"/><rect x="400" y="140" width="20" height="20" rx="2" fill="url(#ap0phfe_pg)"/><rect x="80" y="160" width="20" height="20" rx="2" fill="url(#ap0phfe_pg)"/><rect x="100" y="160" width="20" height="20" rx="2" fill="url(#ap0phfe_pg)"/><rect x="400" y="160" width="20" height="20" rx="2" fill="url(#ap0phfe_pg)"/><rect x="420" y="160" width="20" height="20" rx="2" fill="url(#ap0phfe_pg)"/><rect x="460" y="160" width="20" height="20" rx="2" fill="url(#ap0phfe_pg)"/><rect x="0" y="180" width="20" height="20" rx="2" fill="url(#ap0phfe_pg)"/><rect x="80" y="180" width="20" height="20" rx="2" fill="url(#ap0phfe_pg)"/><rect x="420" y="180" width="20" height="20" rx="2" fill="url(#ap0phfe_pg)"/><rect x="460" y="180" width="20" height="20" rx="2" fill="url(#ap0phfe_pg)"/><rect x="60" y="200" width="20" height="20" rx="2" fill="url(#ap0phfe_pg)"/><rect x="80" y="200" width="20" height="20" rx="2" fill="url(#ap0phfe_pg)"/><rect x="160" y="200" width="20" height="20" rx="2" fill="url(#ap0phfe_ag)"/><rect x="180" y="200" width="20" height="20" rx="2" fill="url(#ap0phfe_ag)"/><rect x="200" y="200" width="20" height="20" rx="2" fill="url(#ap0phfe_ag)"/><rect x="300" y="200" width="20" height="20" rx="2" fill="url(#ap0phfe_ag)"/><rect x="320" y="200" width="20" height="20" rx="2" fill="url(#ap0phfe_ag)"/><rect x="340" y="200" width="20" height="20" rx="2" fill="url(#ap0phfe_ag)"/><rect x="420" y="200" width="20" height="20" rx="2" fill="url(#ap0phfe_pg)"/><rect x="440" y="200" width="20" height="20" rx="2" fill="url(#ap0phfe_pg)"/><rect x="60" y="220" width="20" height="20" rx="2" fill="url(#ap0phfe_pg)"/><rect x="80" y="220" width="20" height="20" rx="2" fill="url(#ap0phfe_pg)"/><rect x="160" y="220" width="20" height="20" rx="2" fill="url(#ap0phfe_ag)"/><rect x="180" y="220" width="20" height="20" rx="2" fill="url(#ap0phfe_ag)"/><rect x="200" y="220" width="20" height="20" rx="2" fill="url(#ap0phfe_ag)"/><rect x="300" y="220" width="20" height="20" rx="2" fill="url(#ap0phfe_ag)"/><rect x="320" y="220" width="20" height="20" rx="2" fill="url(#ap0phfe_ag)"/><rect x="340" y="220" width="20" height="20" rx="2" fill="url(#ap0phfe_ag)"/><rect x="420" y="220" width="20" height="20" rx="2" fill="url(#ap0phfe_pg)"/><rect x="440" y="220" width="20" height="20" rx="2" fill="url(#ap0phfe_pg)"/><rect x="60" y="240" width="20" height="20" rx="2" fill="url(#ap0phfe_pg)"/><rect x="160" y="240" width="20" height="20" rx="2" fill="url(#ap0phfe_ag)"/><rect x="180" y="240" width="20" height="20" rx="2" fill="url(#ap0phfe_ag)"/><rect x="200" y="240" width="20" height="20" rx="2" fill="url(#ap0phfe_ag)"/><rect x="300" y="240" width="20" height="20" rx="2" fill="url(#ap0phfe_ag)"/><rect x="320" y="240" width="20" height="20" rx="2" fill="url(#ap0phfe_ag)"/><rect x="340" y="240" width="20" height="20" rx="2" fill="url(#ap0phfe_ag)"/><rect x="440" y="240" width="20" height="20" rx="2" fill="url(#ap0phfe_pg)"/><rect x="20" y="260" width="20" height="20" rx="2" fill="url(#ap0phfe_pg)"/><rect x="40" y="260" width="20" height="20" rx="2" fill="url(#ap0phfe_pg)"/><rect x="60" y="260" width="20" height="20" rx="2" fill="url(#ap0phfe_pg)"/><rect x="260" y="260" width="20" height="20" rx="2" fill="url(#ap0phfe_pg)"/><rect x="440" y="260" width="20" height="20" rx="2" fill="url(#ap0phfe_pg)"/><rect x="460" y="260" width="20" height="20" rx="2" fill="url(#ap0phfe_pg)"/><rect x="40" y="280" width="20" height="20" rx="2" fill="url(#ap0phfe_pg)"/><rect x="60" y="280" width="20" height="20" rx="2" fill="url(#ap0phfe_pg)"/><rect x="260" y="280" width="20" height="20" rx="2" fill="url(#ap0phfe_pg)"/><rect x="440" y="280" width="20" height="20" rx="2" fill="url(#ap0phfe_pg)"/><rect x="460" y="280" width="20" height="20" rx="2" fill="url(#ap0phfe_pg)"/><rect x="480" y="280" width="20" height="20" rx="2" fill="url(#ap0phfe_pg)"/><rect x="20" y="300" width="20" height="20" rx="2" fill="url(#ap0phfe_pg)"/><rect x="40" y="300" width="20" height="20" rx="2" fill="url(#ap0phfe_pg)"/><rect x="60" y="300" width="20" height="20" rx="2" fill="url(#ap0phfe_pg)"/><rect x="80" y="300" width="20" height="20" rx="2" fill="url(#ap0phfe_pg)"/><rect x="100" y="300" width="20" height="20" rx="2" fill="url(#ap0phfe_pg)"/><rect x="120" y="300" width="20" height="20" rx="2" fill="url(#ap0phfe_pg)"/><rect x="380" y="300" width="20" height="20" rx="2" fill="url(#ap0phfe_pg)"/><rect x="420" y="300" width="20" height="20" rx="2" fill="url(#ap0phfe_pg)"/><rect x="440" y="300" width="20" height="20" rx="2" fill="url(#ap0phfe_pg)"/><rect x="460" y="300" width="20" height="20" rx="2" fill="url(#ap0phfe_pg)"/><rect x="480" y="300" width="20" height="20" rx="2" fill="url(#ap0phfe_pg)"/><rect x="60" y="320" width="20" height="20" rx="2" fill="url(#ap0phfe_pg)"/><rect x="180" y="320" width="20" height="20" rx="2" fill="url(#ap0phfe_pg)"/><rect x="200" y="320" width="20" height="20" rx="2" fill="url(#ap0phfe_pg)"/><rect x="220" y="320" width="20" height="20" rx="2" fill="url(#ap0phfe_pg)"/><rect x="240" y="320" width="20" height="20" rx="2" fill="url(#ap0phfe_pg)"/><rect x="260" y="320" width="20" height="20" rx="2" fill="url(#ap0phfe_pg)"/><rect x="280" y="320" width="20" height="20" rx="2" fill="url(#ap0phfe_pg)"/><rect x="300" y="320" width="20" height="20" rx="2" fill="url(#ap0phfe_pg)"/><rect x="320" y="320" width="20" height="20" rx="2" fill="url(#ap0phfe_pg)"/><rect x="340" y="320" width="20" height="20" rx="2" fill="url(#ap0phfe_pg)"/><rect x="440" y="320" width="20" height="20" rx="2" fill="url(#ap0phfe_pg)"/><rect x="0" y="340" width="20" height="20" rx="2" fill="url(#ap0phfe_pg)"/><rect x="40" y="340" width="20" height="20" rx="2" fill="url(#ap0phfe_pg)"/><rect x="60" y="340" width="20" height="20" rx="2" fill="url(#ap0phfe_pg)"/><rect x="80" y="340" width="20" height="20" rx="2" fill="url(#ap0phfe_pg)"/><rect x="120" y="340" width="20" height="20" rx="2" fill="url(#ap0phfe_pg)"/><rect x="380" y="340" width="20" height="20" rx="2" fill="url(#ap0phfe_pg)"/><rect x="420" y="340" width="20" height="20" rx="2" fill="url(#ap0phfe_pg)"/><rect x="440" y="340" width="20" height="20" rx="2" fill="url(#ap0phfe_pg)"/><rect x="0" y="360" width="20" height="20" rx="2" fill="url(#ap0phfe_pg)"/><rect x="20" y="360" width="20" height="20" rx="2" fill="url(#ap0phfe_pg)"/><rect x="40" y="360" width="20" height="20" rx="2" fill="url(#ap0phfe_pg)"/><rect x="60" y="360" width="20" height="20" rx="2" fill="url(#ap0phfe_pg)"/><rect x="80" y="360" width="20" height="20" rx="2" fill="url(#ap0phfe_pg)"/><rect x="100" y="360" width="20" height="20" rx="2" fill="url(#ap0phfe_pg)"/><rect x="120" y="360" width="20" height="20" rx="2" fill="url(#ap0phfe_pg)"/><rect x="420" y="360" width="20" height="20" rx="2" fill="url(#ap0phfe_pg)"/><rect x="440" y="360" width="20" height="20" rx="2" fill="url(#ap0phfe_pg)"/><rect x="0" y="380" width="20" height="20" rx="2" fill="url(#ap0phfe_pg)"/><rect x="20" y="380" width="20" height="20" rx="2" fill="url(#ap0phfe_pg)"/><rect x="80" y="380" width="20" height="20" rx="2" fill="url(#ap0phfe_pg)"/><rect x="100" y="380" width="20" height="20" rx="2" fill="url(#ap0phfe_pg)"/><rect x="120" y="380" width="20" height="20" rx="2" fill="url(#ap0phfe_pg)"/><rect x="360" y="380" width="20" height="20" rx="2" fill="url(#ap0phfe_pg)"/><rect x="400" y="380" width="20" height="20" rx="2" fill="url(#ap0phfe_pg)"/><rect x="420" y="380" width="20" height="20" rx="2" fill="url(#ap0phfe_pg)"/><rect x="0" y="400" width="20" height="20" rx="2" fill="url(#ap0phfe_pg)"/><rect x="40" y="400" width="20" height="20" rx="2" fill="url(#ap0phfe_pg)"/><rect x="60" y="400" width="20" height="20" rx="2" fill="url(#ap0phfe_pg)"/><rect x="80" y="400" width="20" height="20" rx="2" fill="url(#ap0phfe_pg)"/><rect x="100" y="400" width="20" height="20" rx="2" fill="url(#ap0phfe_pg)"/><rect x="120" y="400" width="20" height="20" rx="2" fill="url(#ap0phfe_pg)"/><rect x="140" y="400" width="20" height="20" rx="2" fill="url(#ap0phfe_pg)"/><rect x="360" y="400" width="20" height="20" rx="2" fill="url(#ap0phfe_pg)"/><rect x="380" y="400" width="20" height="20" rx="2" fill="url(#ap0phfe_pg)"/><rect x="400" y="400" width="20" height="20" rx="2" fill="url(#ap0phfe_pg)"/><rect x="460" y="400" width="20" height="20" rx="2" fill="url(#ap0phfe_pg)"/><rect x="0" y="420" width="20" height="20" rx="2" fill="url(#ap0phfe_pg)"/><rect x="40" y="420" width="20" height="20" rx="2" fill="url(#ap0phfe_pg)"/><rect x="60" y="420" width="20" height="20" rx="2" fill="url(#ap0phfe_pg)"/><rect x="80" y="420" width="20" height="20" rx="2" fill="url(#ap0phfe_pg)"/><rect x="100" y="420" width="20" height="20" rx="2" fill="url(#ap0phfe_pg)"/><rect x="120" y="420" width="20" height="20" rx="2" fill="url(#ap0phfe_pg)"/><rect x="140" y="420" width="20" height="20" rx="2" fill="url(#ap0phfe_pg)"/><rect x="160" y="420" width="20" height="20" rx="2" fill="url(#ap0phfe_pg)"/><rect x="180" y="420" width="20" height="20" rx="2" fill="url(#ap0phfe_pg)"/><rect x="200" y="420" width="20" height="20" rx="2" fill="url(#ap0phfe_pg)"/><rect x="220" y="420" width="20" height="20" rx="2" fill="url(#ap0phfe_pg)"/><rect x="240" y="420" width="20" height="20" rx="2" fill="url(#ap0phfe_pg)"/><rect x="260" y="420" width="20" height="20" rx="2" fill="url(#ap0phfe_pg)"/><rect x="280" y="420" width="20" height="20" rx="2" fill="url(#ap0phfe_pg)"/><rect x="300" y="420" width="20" height="20" rx="2" fill="url(#ap0phfe_pg)"/><rect x="320" y="420" width="20" height="20" rx="2" fill="url(#ap0phfe_pg)"/><rect x="340" y="420" width="20" height="20" rx="2" fill="url(#ap0phfe_pg)"/><rect x="360" y="420" width="20" height="20" rx="2" fill="url(#ap0phfe_pg)"/><rect x="380" y="420" width="20" height="20" rx="2" fill="url(#ap0phfe_pg)"/><rect x="0" y="440" width="20" height="20" rx="2" fill="url(#ap0phfe_pg)"/><rect x="20" y="440" width="20" height="20" rx="2" fill="url(#ap0phfe_pg)"/><rect x="40" y="440" width="20" height="20" rx="2" fill="url(#ap0phfe_pg)"/><rect x="60" y="440" width="20" height="20" rx="2" fill="url(#ap0phfe_pg)"/><rect x="80" y="440" width="20" height="20" rx="2" fill="url(#ap0phfe_pg)"/><rect x="100" y="440" width="20" height="20" rx="2" fill="url(#ap0phfe_pg)"/><rect x="120" y="440" width="20" height="20" rx="2" fill="url(#ap0phfe_pg)"/><rect x="180" y="440" width="20" height="20" rx="2" fill="url(#ap0phfe_pg)"/><rect x="200" y="440" width="20" height="20" rx="2" fill="url(#ap0phfe_pg)"/><rect x="220" y="440" width="20" height="20" rx="2" fill="url(#ap0phfe_pg)"/><rect x="240" y="440" width="20" height="20" rx="2" fill="url(#ap0phfe_pg)"/><rect x="260" y="440" width="20" height="20" rx="2" fill="url(#ap0phfe_pg)"/><rect x="280" y="440" width="20" height="20" rx="2" fill="url(#ap0phfe_pg)"/><rect x="300" y="440" width="20" height="20" rx="2" fill="url(#ap0phfe_pg)"/><rect x="320" y="440" width="20" height="20" rx="2" fill="url(#ap0phfe_pg)"/><rect x="380" y="440" width="20" height="20" rx="2" fill="url(#ap0phfe_pg)"/><rect x="0" y="460" width="20" height="20" rx="2" fill="url(#ap0phfe_pg)"/><rect x="120" y="460" width="20" height="20" rx="2" fill="url(#ap0phfe_pg)"/><rect x="160" y="460" width="20" height="20" rx="2" fill="url(#ap0phfe_pg)"/><rect x="0" y="480" width="20" height="20" rx="2" fill="url(#ap0phfe_pg)"/><rect x="20" y="480" width="20" height="20" rx="2" fill="url(#ap0phfe_pg)"/><rect x="40" y="480" width="20" height="20" rx="2" fill="url(#ap0phfe_pg)"/><rect x="60" y="480" width="20" height="20" rx="2" fill="url(#ap0phfe_pg)"/><rect x="80" y="480" width="20" height="20" rx="2" fill="url(#ap0phfe_pg)"/><rect x="100" y="480" width="20" height="20" rx="2" fill="url(#ap0phfe_pg)"/><rect x="120" y="480" width="20" height="20" rx="2" fill="url(#ap0phfe_pg)"/><rect x="240" y="480" width="20" height="20" rx="2" fill="url(#ap0phfe_pg)"/><rect x="260" y="480" width="20" height="20" rx="2" fill="url(#ap0phfe_pg)"/><text x="494" y="14" text-anchor="end" fill="#4fc3f7" font-family="monospace" font-size="8" font-weight="bold" opacity="0.8">Rare</text><text x="250" y="494" text-anchor="middle" fill="hsl(0, 65%, 55%)" font-family="monospace" font-size="10" opacity="0.6">MrsMillion</text></svg>